<svg xmlns="http://www.w3.org/2000/svg" xmlns:xlink="http://www.w3.org/1999/xlink" viewBox="0 0 170 85" fill="#fff" fill-rule="evenodd" stroke="#000" stroke-linecap="round" stroke-linejoin="round"><use xlink:href="#A" x="5" y="2.5"/><symbol id="A" overflow="visible"><g fill="#000" stroke="none"><path d="M141.889 2.309c-.417 2.479-1.096 4.312-2.009 5.535l-.653-.543 1.018-4.041-.183-.373c-.235.034-.548.849-.94 2.479l-.339.034a2.35 2.35 0 0 0-.183-.781l-.157.034c-3.079 11.171-4.462 16.367-7.307 24.958-.522 2.207-.966 3.43-1.357 3.667.026.238.13.373.339.34.078 1.087-.131 2.139-.574 3.192-1.331 4.924-2.192 7.64-2.636 8.115l.287 2.343c.026.238-.078.407-.287.407l-.313.034c-.052-.645-.235-.951-.548-.917l-.157.034c-.391.815-.705 1.766-.913 2.852l.313-.034c.418-.34.6-.747.574-1.256l.626-.068.339.17c-.287.577-.417 1.053-.391 1.392l.156.373-.391 1.222.026.204c.365-.034.757.102 1.174.441.287-.034.6-.204.94-.475.365-.034 1.67-.068 3.967-.068l1.148-.509c1.409-.034 1.618.034 2.845-.102l.496-.068.261-.238.026.204c1.253-.136 1.357-.034 2.349.136l.026.204-.705.068.026.373c.209-.034.391-.102.548-.272.183-.034.287.102.313.373-.287.034-.6.136-.966.272l-.313-.136c-.496.17-.391.204-.705.238l-.496-.136c0 .102-.026.17-.104.204.026.238.104.373.287.34l.6-.068-.261-.136c0 .102.052.17.157.17l2.584-.306.992-.272c0 .102.052.17.131.17l.47-.238.887-.102c.705-.068.679-.136 2.166-.441 0-.102.026-.17.104-.17v.17c2.845-.611 2.584-.577 3.184-.849l-.13-.407c-.809.238-.783.102-1.2.17l-2.166.136-.026-.204 1.2-.204.444-.034.235-.238.026.204c1.696-.204 2.297.373 10.204-1.8.418-.034.392-.509.652-1.46-.156 0-.287-.034-.417-.136-.652.34-.992.17-2.244.441-.104 0-.183-.102-.235-.373v-.17l1.2.068c.209-.034.679-.068 1.305-.543.13.102-.104.204.026.17l.209-.034c.13 0 .183-.136.183-.407l-.13-.373c-.809.102-1.201.136-1.853.611l-.026-.204-.992.136c-.026-.407-.104-.577-.235-.577l-.522.068c-.6.068-.887.034-1.174.34 0-.136-.052-.204-.104-.204l-.574.068-.339.238c0-.136-.052-.204-.104-.204l-.209.238-.026-.204-.783-.068-.183.034.026.373.418.136.365-.034c.131.102.287.136.444.136l.339-.204v.17c-1.853.611-1.853.475-3.132.781-.157-.136-.261-.17-.313-.17-.131.17.157.034.078.034-.209.034-.313-.102-.339-.34l.652-.102c.052 0 .078.068.444.17.522-.34.548-.475.835-.509l-.026-.373c-1.827.475-1.096.17-3.393.407h-.104l-.026-.373c2.949-.475 1.957-.204 2.949-.577 0 .136.052.204.104.204.104-.136.261-.238.417-.238l.209-.034c1.018-.102 1.383.17 3.419-.577v.17l.339-.204.313-.034c-.026-.407.444-.441.574-.475l-.026-.407c-3.575.951-4.515.679-5.507 1.053v-.17c-.94.238-.966.102-1.2.136-.078 0-.183.102-.287.238 0-.136-.052-.204-.13-.204-.157 0-.078.068-.209.238l.209-.238-3.106.645c0-.102-.052-.17-.13-.17-1.566.441-1.148.509-3.262.747-.104 0-.235.068-.391.204 0-.102-.052-.17-.157-.17l-1.305.136-.861.272c0-.102-.052-.17-.157-.17-.496.17-.913.272-1.253.306h-.026c-.209.034.104-.068-.052-.17l-.261.204c-.391.034-.183-.034-1.487 0-2.297.373-2.036.407-2.297.441l-.861-.068c0 .102-.026.17-.13.204-.966-.17-1.461-.373-1.488-.611.13-1.188.339-1.8.679-1.868l.157-.034-.157.407.157-.034c.313-.204.444-.407.444-.611l-.026-.407-.313.034-.026-.373c-.026-.306 0-.543.078-.781l.705-1.46.026.373.339-.034-.026-.373-.183-.373c.235-.272.444-.441.6-.441l-.026-.204-.444.034-.026-.577c.887-2.445 1.331-3.871 1.305-4.244l.313.17c.209-.034.313-.17.287-.441l-.313.034v-.17a2.02 2.02 0 0 1 .104-.815c.496-.645.705-1.324.653-2.037.104 0 .156.068.156.204.418-.306.731-1.12.966-2.479.731-1.732 1.775-5.195 3.132-10.357 2.61-9.134 2.505-10.119 2.871-12.258l-.313.034c.026.272-.026.543-.13.781-.209-.102-.392-.17-.496-.17v-.17c-.052-.781.209-1.732.783-2.852h.131l.261 1.324.313-.034c0-.102.078-.611.235-1.596-.026-.204-.13-.306-.365-.34l-.287.238c-.026-.272 0-.985.026-2.173l-.287.068zm-3.758 5.874l.156-.034c-.235.543-.418.849-.6.883l-.026-.577c.13-.034.287-.102.47-.272zm-1.305 4.075c.313-1.664.626-2.615.913-2.852l.026.204c-.157 1.562-.417 2.343-.783 2.411l.052.985c-.287.509-.418.917-.391 1.222l-.157.034-.078-1.358c.157-.034.313-.238.417-.645zm-.496 2.207c.026.238-.104.781-.339 1.596l-.157.034-.026-.577c.183-.679.365-1.019.522-1.053zm-8.586 24.686l.157.373c.235-.034.339-.17.313-.407l-.026-.204-.157.034-.287.204zm4.123 4.448v.17c.235-.034.47-.577.678-1.63l-.313-.136c-.261.917-.365 1.426-.365 1.596zm26.41 1.189v.17l-.261.407.496-.238h.052l-.026-.373h-.104l-.183.204c0-.102.548-.306.13-.408-.078.17.131.204-.104.238zm1.018 1.222l.705-.068c-.026-.238-.47-.306-.626-.306h-.104l.026.373zm-12.474.34l.209.34c0-.102.026-.17.104-.17l.157.374-.652-.102c-.052-.272.026-.407.183-.441zm-2.14.306c.235-.034.391.17.391.441h-.731v-.17c.078-.034.209-.102.339-.272zm1.67-.102l.026.204-.6.068-.026-.204.6-.068zm-6.054.815c0 .102.052.17.157.17.966-.238.861-.272 1.331-.34.157-.034.235.102.261.34l-2.688.306.261.17-.026-.204-1.018.102-.026-.204.913-.102.835-.238zm2.766-.306v.17c-.078 0 .261.034.104.204-.574-.068-.6-.136-1.018-.102v-.17l.913-.102zm.678-.102v.17l-.496.068v-.17l.496-.068zm-16.702 3.463l.026.577c-.157.034-.287-.102-.339-.373v-.17l.313-.034zm22.339-.509l.026.373.522-.068-.209-.17.026.204.522-.272c3.575-.509 3.993-.306 3.941-.849v-.17c-3.601 1.053-4.071.849-4.828.951zm5.585-.645l.522.136-.026-.373-.522-.136.026.374zm-15.449 1.324c.157.102-.183.204.026.17l1.827-.204.026.204c-.522.068-.861.17-.966.306 0-.136-.052-.204-.157-.204l-.783.102-.026-.204c.209-.034-.104-.034.052-.17zm8.455-.272l.157.373c.6-.17.261-.136.418-.306 0 .136.052.204.104.204l.418-.034-.026-.407-1.096-.034.026.204zm-10.334 1.46h-.104l-.026-.373h.104l.026.373zm-8.168 1.29l.026.204 4.802-.509-.026-.373-3.836.407-.809-.136-.157.407zm5.35-.373h.052l-.026-.373h-.052l.026.373zM61.745 19.898c-3.393 5.263-5.141 8.15-5.272 8.727-1.383 1.868-2.062 2.988-1.983 3.362-.365.306-.522.611-.47.951-.104.034-.183-.034-.209-.17-.6 1.256-1.461 2.037-2.636 2.411l-1.226.373c-.157.034-.235.204-.235.475l.026.204.47-.136.026.17-1.044.509-1.853.543-.966.068c-.13.17.757-.034.418.102l-1.201.373c-.731.238-1.148.136-1.2-.238l-.131.034c.078.373 0 .611-.209.679l.235-.068-.104-.577-2.192.679.235.136c-.026-.136-.131-.17-.339-.102l-.287.306-.339-.102c-.313.238-.522.373-.574.373l-.339-.102c-.913.679-.235.679-.287.679l.078.373.522-.17.809-.068-.078.441c-2.975 1.019-.809.441-1.618.679l-.157.034.078.373.47-.136.026.204c-.6.17-.939.34-1.044.509l-.026-.204c-.783.238-1.566 1.019-2.349 2.309.13.747-1.566 1.664 6.42-.747.548-.034.861-.034.94-.068-.026-.136.026-.204.13-.238.887-.136.47.068 1.018-.102L47 42.241l-.365.272c-.026-.102.026-.17.104-.204.209.068.417.034.652-.034l.104.577-6.811 14.058-1.514 2.445-.731 3.226.13-.034.731-.407-.235 1.256.078.373.209.34c-.104.034-.13.102-.104.238l.026.204.313-.102c.444-.509.626-.985.574-1.392.496.102.809.136.966.102l.026.204c-.287.102-.444.407-.47.917l.026.204.157-.034c2.479-3.497 8.508-15.484 13.362-23.633-.157-.883 2.375-2.105 7.594-3.667l.157-.034c.183 1.053-.209 3.633-1.201 7.742-.652 2.479-.939 3.837-.913 4.041-.835 3.294-1.227 5.06-1.174 5.331l-1.853 7.878c-1.2 4.041-2.114 8.285-2.74 12.767.104-.034.287 0 .496.068l.261-.306c.026.136.078.17.209.17l-.104-.577.809-.034c.235-.068.444-.475.6-1.189-.026-1.053.13-1.63.496-1.766.496-2.513.809-3.803.913-3.837.47-2.513.809-3.939 1.044-4.312.705-3.26 1.201-4.958 1.54-5.059l.078.407-.496 1.732c-.887 5.127-1.801 9.202-2.714 12.19l.261 1.494.157-.034c2.218-6.18 5.376-18.404 9.525-36.672.13-1.596.705-2.852 1.775-3.735l-.235-.306-.026-.17c.47-.136.809-.373.992-.713-.026-.136-.444-.34-1.253-.611l2.453-13.65c.731-4.075 1.227-7.64 1.488-10.764l-.026-.204c-.496-.407-.992-.985-1.435-1.732v-.815l-.026-.17-.13.034c-1.514 2.988-4.541 8.183-9.003 15.586zm3.471 3.09c.13.713-.078 2.037-.6 3.973-.157 2.445-.835 3.837-2.009 4.211l-.026-.204-1.044.509-.47.136c-.235.068-.444.068-.652-.034l-.104-.543c-.026-.204 1.461-2.92 4.541-8.116l.365.068zm-2.401 8.489l.339-.102.078.373-2.74 1.053c-.104.034-.261.136-.444.339-.026-.136-.235-.136-.652-.034-.078-.373 1.07-.917 3.419-1.63zm-16.206 5.705l.365-.102-.078-.408-.365.102.078.408zm4.776-1.63l.078.373-.783.068-.026-.204.731-.238zm-9.134 3.905l.026.204-.496.136-.026-.204.496-.136zm-.913 2.479l.026.17-.6.17-.078-.374.652.034zm1.435-.407l.026.17-1.096.34-.026-.17 1.096-.34zm1.905-.407l.026.204-2.871.849-.078-.373c1.67-.373 1.488-.238 2.923-.679zm14.379-4.346l.235.34c-.339.102-.6.238-.731.407l-.339-.068c-.522.272-.992.475-1.357.577l-.313.102c-.183.068-.313-.034-.392-.272l2.166-.645.731-.441zm1.54-.441l1.54-.475.026.204c-.835.238-1.487.509-1.957.815l-.026-.204c.13-.034.261-.17.418-.339zm-16.18 5.705l.731-.204.078.373c-.313.102-.078.102-.47.34-.757.102-.6-.034-1.801.34l-.026-.204 1.488-.645zm1.983-.442c.209-.068.339.034.365.306l-.444.136c-.183.068-.313-.034-.391-.306l.47-.136zm-8.168 21.46l.026.204c.209-.068.287-.204.235-.475l-.026-.204c-.183.068-.261.204-.235.475zm.626 3.396c.052.238.157.34.365.272s.287-.204.235-.475l-.026-.204-.313.102-.261.306zm16.65 5.84c.209-.068.313.034.365.272l.026.204-.6.17c.052-.272.052-.475.026-.611l.183-.034z"/><path d="M79.674 9.474c-1.357 1.256-2.897 2.547-4.619 3.803l.026.374c.104 0 .261-.102.47-.272.209-.034.313.102.339.34l.287-.204h.13v.17c.026.204-1.07 1.29-3.21 3.26l.157.407h-.13l-.339-.17c0 .136-.13.238-.444.272v.17l.339.543c-.104 0-.287-.034-.496-.17-.705.068-1.383.747-2.062 1.969l.157.374c.6-.713.94-1.087 1.044-1.087l.026.577c-.104 0-.261.102-.47.272l.392.713c.705-1.019 1.487-1.868 2.323-2.581.418.17.652.34.652.509l.313-.034c2.349-2.241 4.645-3.837 6.916-4.822l.026.374c-.418.815-.705 1.222-.861 1.256a2.36 2.36 0 0 0 .183.747c.026.509-.992 3.905-3.08 10.187-4.776 14.567-8.768 25.365-12.004 32.36 0 .136.078.34.209.577.809-.238 1.305-.509 1.514-.747h.13l.026.373.339-.034.287-.204c0 .102.104.17.313.136l.026.407c.026.373-.157.951-.496 1.766-.339.475-.705 1.494-1.07 3.022l.026.204.313-.034c1.305-1.902 2.27-3.735 2.949-5.569 3.784-1.46 6.655-2.852 8.664-4.244 2.035-.238 3.549-.917 4.593-2.037l-.026-.204-.783.306-.157.034-.026-.204c1.488-.272 2.505-.713 3.053-1.29 2.871-2.886 5.037-4.924 6.524-6.112 4.541-4.346 6.681-8.489 6.42-12.496-.026-.407-1.018-2.037-3.001-4.89-.026-.543.652-1.324 2.035-2.343l3.967-4.482c.887-1.46 1.409-3.837 1.566-7.131l-.052-.747c-.157-2.275-1.435-4.109-3.836-5.535-1.435-1.256-3.993-1.936-7.672-2.071-2.975.272-6.968 1.698-11.9 4.21zm21.243.272l-.157.407-4.384-2.411c2.949.17 4.463.815 4.541 2.003zM83.119 25.637c.313-2.139.652-3.328 1.018-3.599l3.314-9.644c-.026-.577.652-1.053 2.088-1.392l.47-.068.026.577c1.409-.306 2.27-.475 2.636-.509 2.61-.306 3.967.408 4.071 2.037l.313-.034-.052-.917.313-.034c.757.543 1.148 1.189 1.2 1.97.026.543-.183 1.222-.626 2.037-.209.034-.313-.17-.339-.543l-.313.034-.104 1.154c-1.331 2.615-2.27 3.939-2.871 4.007-.522.951-.861 1.426-1.018 1.426-.418.645-1.54 1.766-3.393 3.294-.626.068-2.897 1.222-6.837 3.464-.183-.102-.418-.136-.626-.102l-.026-.373c-.052-.713.209-1.63.757-2.784zm18.216-11.885l.026.407c-.157 0-.444-.611-.913-1.834l-.026-.373c.287-.034.6.577.913 1.8zM72.419 18.37l.026.204c-.104 0-.261.102-.47.238h-.13l-.026-.373.6-.068zm9.578-.306l.026.577c-.157 0-.339.306-.574.815l-.026-.373c.261-.441.391-.781.391-1.019h.183zm-1.487 4.007l.052.747-.157.034-.052-.747.157-.034zm-.365 1.392c-.026.645-.157.985-.391 1.019l-.157.034c.183-.441.261-.781.235-1.019l.313-.034zm-.678 2.003l.026.204-.261.611-.313.034-.026-.204c.313-.034.47-.238.444-.645h.13zm-.652 1.8l-.104.985h-.131l-.052-.985h.287zm16.076.713l.652.509c.026.238-.078.407-.287.407-.287-.238-.496-.34-.652-.306v-.577l.287-.034zM82.31 30.153l.026.373-.626.068-.026-.373.626-.068zm10.152 1.392c.444.272.652.509.678.713v.17c-.418.034-.809-.238-1.174-.849l.496-.034zm-13.075 4.177c1.775-.204 4.567-1.29 8.403-3.26l.966-.102c1.931-.204 3.367.272 4.332 1.46l.052.747c-.705 2.648-1.487 4.21-2.349 4.686l-3.941 4.143c-2.949 2.513-4.541 3.769-4.802 3.803-4.697 3.362-7.62 5.093-8.768 5.229l-.157.034c.104-.713 2.192-6.282 6.263-16.74zm4.254-2.207l.026.204-.626.068-.026-.204.626-.068zm14.223-.849l.104 1.562c-.157.373-.287.577-.444.611l-.183-2.649c.339.136.522.306.522.475zM73.776 45.976c-.209 1.29-.418 1.97-.626 1.97v-.17c-.078-.611.13-1.222.626-1.8zm3.941 7.267c1.148-.272 4.306-2.411 9.473-6.452l.026.373c0 .17-.418.679-1.331 1.494-2.61 1.698-4.175 2.818-4.645 3.396-2.845 1.29-4.254 2.105-4.228 2.411-2.531 1.29-4.175 2.241-4.984 2.852-.183.034-.47-.068-.809-.306-.052-.679.183-1.188.678-1.596.444-.034.861.034 1.253.238.47-.306 1.279-.645 2.453-1.053l-.026-.373-.966.102c.104-.238 1.018-.781 2.714-1.664l.47-.068v.17c-.809.102-1.253.407-1.357.951.026.238.13.373.339.339.653-.407.939-.713.939-.815zm-4.88-4.652v.17c.026.272-.078.441-.287.441l-.026-.204c0-.17.104-.34.313-.407zm7.412 2.649c-.365.034-1.07.441-2.114 1.188l-.157.034-.026-.373c.757-.102 1.435-.475 1.957-1.154.209-.034.313.068.339.306zm-7.672 2.784l.47-.068.026.204c-.104 0-.261.102-.47.238l-.313.034c-.026-.204.078-.339.287-.407zm-3.158 2.275l.313.17c-.104 1.188-.392 1.8-.809 1.834-.365-.204-.678-.306-.966-.272l-.026-.577c-.026-.204.078-.34.287-.407.209-.034.313.17.339.543.522-.849.809-1.29.861-1.29zM18.242 7.776c-1.775 1.698-3.81 3.362-6.081 4.992l.026.509c.157 0 .339-.136.6-.306.261-.034.418.102.418.441l.418-.306.209-.034.026.238c.026.238-1.409 1.698-4.254 4.312l.235.475-.209.034-.444-.204c0 .17-.183.272-.6.306l.026.272.47.679a1.34 1.34 0 0 1-.626-.17c-.913.102-1.827.985-2.714 2.615l.235.475c.783-.917 1.226-1.392 1.357-1.392l.052.747c-.13 0-.339.136-.6.306l.496.951c.939-1.324 1.957-2.445 3.106-3.362.574.204.861.407.861.679l.418-.034c3.053-2.954 6.081-5.059 9.082-6.384l.026.509c-.548 1.087-.939 1.63-1.148 1.664.026.373.13.679.287.985.052.679-1.305 5.127-4.071 13.413C9.525 49.406 4.254 63.599 0 72.835c0 .17.104.441.235.747 1.044-.34 1.722-.645 2.009-.985l.235-.034.026.509.391-.034.418-.306c0 .17.157.238.418.204l.026.509c.026.509-.183 1.29-.679 2.343-.444.645-.887 1.969-1.383 3.973l.026.238.391-.034c1.696-2.479 3.001-4.924 3.889-7.3 4.985-1.901 8.769-3.769 11.404-5.603 2.636-.306 4.671-1.188 6.028-2.682l-.026-.272-.992.374-.235.034-.026-.272c1.931-.373 3.288-.951 4.019-1.698 3.784-3.803 6.629-6.486 8.56-8.081 5.976-5.705 8.795-11.205 8.455-16.435-.026-.543-1.357-2.683-3.941-6.418-.052-.713.861-1.732 2.688-3.09l5.193-5.942c1.148-1.935 1.853-5.059 2.088-9.372l-.078-1.019c-.209-3.022-1.879-5.467-5.063-7.335-1.879-1.664-5.245-2.547-10.099-2.649-3.993.475-9.264 2.309-15.736 5.569zm27.976.441l-.157.509-5.794-3.158c3.862.204 5.846 1.087 5.95 2.648zM22.783 29.134c.391-2.784.835-4.38 1.331-4.754l4.332-12.665c-.052-.781.861-1.392 2.766-1.8l.626-.068.052.713 3.471-.645c3.445-.373 5.219.509 5.376 2.717l.392-.034-.078-1.29.417-.034c1.018.713 1.566 1.596 1.618 2.649.052.713-.235 1.596-.887 2.649-.261.034-.418-.204-.444-.713l-.418.034-.104 1.528c-1.748 3.396-3.001 5.127-3.784 5.229-.705 1.256-1.148 1.902-1.331 1.935-.548.849-2.036 2.309-4.489 4.346-.809.102-3.81 1.596-9.003 4.55-.261-.17-.522-.204-.835-.17l-.026-.475c-.052-.985.261-2.207 1.018-3.701zm23.983-15.62l.026.475c-.209.034-.6-.781-1.174-2.411l-.026-.475c.365-.068.757.747 1.174 2.411zM8.664 19.559l.026.238c-.131 0-.339.136-.6.306l-.209.034-.026-.475.809-.102zm12.605-.407l.052.747c-.183.034-.444.373-.757 1.087l-.026-.509c.365-.577.548-1.019.548-1.324h.183zm-1.931 5.297l.078 1.019-.209.034-.078-1.019.209-.034zm-.496 1.834c-.052.849-.209 1.29-.548 1.324l-.209.034c.235-.577.365-.985.339-1.29l.418-.068zm-.861 2.649l.026.238-.365.815-.392.034-.026-.238c.392-.034.574-.306.548-.815l.209-.034zm-.887 2.377l-.104 1.256-.209.034-.078-1.256.391-.034zm21.165.917l.861.679c.026.34-.104.543-.365.577-.365-.306-.652-.441-.861-.441l-.052-.747.418-.068zM21.687 35.11l.026.475-.809.102-.026-.475.809-.102zm13.362 1.766c.574.34.861.679.887.951l.026.238c-.548.068-1.044-.306-1.514-1.12l.6-.068zm-17.224 5.501c2.349-.272 6.054-1.698 11.091-4.278l1.227-.136c2.557-.272 4.463.34 5.715 1.902l.078 1.019c-.94 3.531-1.983 5.569-3.105 6.214l-5.219 5.399c-3.888 3.328-5.976 4.991-6.289 5.025-6.185 4.448-10.047 6.723-11.535 6.893l-.235.034c.209-.951 2.949-8.285 8.273-22.071zm5.637-2.886l.026.238-.835.102-.026-.238.835-.102zm18.738-1.087l.13 2.003c-.183.543-.365.815-.574.815l-.235-3.531c.444.238.653.475.679.713zm-31.76 17.521c-.261 1.732-.548 2.615-.835 2.649l-.026-.238c-.052-.883.235-1.664.861-2.411zm5.219 9.575c1.514-.373 5.663-3.226 12.474-8.489l.026.475c.026.204-.574.849-1.748 1.969-3.471 2.207-5.506 3.735-6.107 4.516-3.758 1.698-5.611 2.75-5.585 3.158-3.34 1.732-5.533 2.988-6.576 3.769-.235.034-.6-.102-1.07-.373-.052-.883.235-1.596.913-2.173.574-.068 1.148.034 1.67.34.626-.407 1.696-.883 3.236-1.358l-.026-.509-1.227.136c.157-.272 1.331-.985 3.575-2.173l.626-.068.026.238c-1.044.102-1.644.543-1.775 1.256.026.306.157.475.418.441.757-.679 1.148-1.053 1.148-1.154zm-6.42-6.146l.026.238c.026.34-.104.543-.365.577l-.026-.238c-.026-.306.104-.509.365-.577zm9.76 3.464c-.496.068-1.409.577-2.792 1.596l-.209.034-.026-.509c.992-.102 1.853-.611 2.558-1.528.287-.068.444.102.47.407zM8.873 66.486l.626-.068.026.272c-.157 0-.339.136-.6.306l-.391.034a.49.49 0 0 1 .339-.543zm-4.149 3.022l.444.238c-.157 1.528-.496 2.309-1.096 2.377-.47-.272-.887-.374-1.279-.34l-.052-.747c-.026-.306.104-.475.391-.577.261-.034.418.204.444.713.705-1.121 1.096-1.664 1.148-1.664zM120.489 2.784l-.339-.17-5.559 1.121a1.13 1.13 0 0 0-.757-.17c-.313.034-.783.17-1.487.407l-2.688 1.46.209.441c.13 0 .313-.102.548-.272l.94.102-.13 1.154c-.861.509-1.383 1.256-1.514 2.241-1.305.747-1.957 1.29-1.957 1.63l.026.204.209-.034.365-.238.418.645.052.883c.026.272-2.192 6.35-6.629 18.2l-6.055 18.778c-1.305.475-2.088 1.188-2.297 2.105.026.306.418.475 1.174.577l.026.441-.339.747.052.883c.026.475.992.815 2.871 1.087 0-.17.052-.238.183-.272.026.543-.078 1.63-.365 3.26l.209-.034c.783-1.392 1.148-2.343 1.122-2.886l.157-.034c.183-.034.391.272.626.883-.235.136-1.07 2.581-2.479 7.368l.209.441.209-.034c1.748-5.739 2.844-8.93 3.288-9.542l11.874-1.562.339-.272c0 .17.078.238.209.204l.365-.034.339-.272c0 .17.078.238.209.204l4.254-.475c1.122-.136 1.67-.577 1.618-1.324-.026-.204.652-.441 2.009-.679.13 0 .313.034.574.136 0-.136.652-.272 2.009-.441.026-.917.261-1.426.678-1.46l-.026-.441c-.365.034-.809.17-1.305.373-.887-.068-1.461-.136-1.696-.272-.235.17-.417.272-.548.272l-2.975.136-.365.238c0-.136-.078-.204-.209-.17l-.157.034-.391.238c0-.136-.313-.238-.94-.34l-.365.272-.731.068-.026-.238c3.81-.543 5.715-1.222 5.663-2.037.235-.034.365.136.392.441l1.122-.373-.026-.441-9.134.339c0 .17-.052.238-.183.272l-1.122-.136c-.287.034-.522.136-.705.339l-.418-.204c-1.148.136-2.009.306-2.584.543-.783-.068-1.644-.068-2.61.034l-2.062.238-.939-.136c-.052-.781 1.122-4.652 3.549-11.613.705-2.343 1.357-3.803 1.957-4.346.13 0 .313.034.574.17l1.461-.645.757.17c1.253-.136 2.714-.611 4.384-1.392.418-.034.731 0 .939.102l1.122-.339 3.314-.374c1.409-.17 2.949-.577 4.593-1.222l-.026-.441c-.626.068-.939-.068-.966-.373-.052-.611-.496-.849-1.357-.747l-.026-.442.913-.339 2.401-.272-.026-.441c-.104 0-.574 0-1.488-.034l-.026-.475.94-.102c.235-.034.365-.204.339-.475-1.253.034-1.879-.034-1.879-.238-8.69.543-13.022.645-13.048.306-.13 0-.313.102-.548.306l-.235-.475c2.296-6.35 3.654-9.576 4.045-9.61.026.238-.078.645-.287 1.188l.026.204.365-.034c.913-2.852 1.67-4.312 2.323-4.38 2.714-.306-.391-.543 5.454-1.732.235.136.417.204.522.17 2.296-.611 5.48-1.222 9.578-1.868l-.026-.441-2.192.272-.026-.442a1 1 0 0 0 .653-.34l.026.238c.13 0 .287-.102.496-.306.365-.034.652 0 .861.136.757-.272 1.357-.407 1.827-.475l1.357-.17c.339-.272.496-.509.47-.747v-.204c-.339.034-.731 0-1.201-.102-.026-.238.078-.407.313-.475l2.531-.306 1.174-.373c0 .17.078.238.157.238.131 0 .287-.102.496-.306.6.102.966.136 1.044.102.47-.577 1.018-1.053 1.618-1.358-.261-.34-.391-.611-.417-.849l-1.696.204c0-.17-.078-.373-.183-.679 0-.204.365-.407 1.148-.611l.339.17.313-.238c0 .136.078.204.183.17l.313-.238c0 .136.078.204.183.17l.157-.034-.026-.441c-.235.034-.861.034-1.853 0l-.313.272-.026-.238-13.544 1.46c-.13 0-.705 0-1.67-.034 0 .17-.104.272-.339.272l-.339-.204-1.174.373c-.261.034-.731 0-1.383-.068-.183.17-.392.306-.653.34s6.316-.475 6.107-.611l-1.018.373-.157.034c-.418.034-.939.034-1.566-.068-.183.17-.444.306-.835.34a.92.92 0 0 1-.678-.17c-.287.102-1.122.373-2.531.713zm.418 1.358c0 .17.131.238.339.204l.026.441-.339.034a.92.92 0 0 1-.679-.17c-.183.204-.418.306-.652.34h.104l-.939-.136-.026-.204c1.148-.102 1.514-.272 2.166-.509zm.861-.102l.183-.034.026.441-.522.068c0-.238.078-.407.313-.475zm2.009-.272l.026.238c-.391.034-.887.17-1.487.407l-.183.034.157-.475 1.487-.204zm-14.823 2.207l.574-.068-.026-.441-.574.068.026.441zm4.097-.475l.209-.034.391.204c.026.306-.104.475-.339.475l-.574.068-.026-.238c-.026-.238.104-.374.339-.475zm13.127.985v.204l-1.174.136v-.204l1.174-.136zm-3.367.645l.026.238-.678.068-.026-.238.678-.068zm3.236.34l2.349-.509 1.2.068.026.238c-.574.068-1.07.204-1.487.407 0-.17-.235-.306-.705-.373l-1.853.679c-.365-.272-.548-.475-.548-.611l1.018.102zm-2.323.679c.235-.034.339.102.365.408l-.992.136-.026-.441.652-.102zm-2.062-.136l.026.238 6.107-.374-.026-.238-6.107.373zm.365.611v.204l-1.331.17v-.204l1.331-.17zm-8.742 8.998l.026.238.391-.034c0-.17.026-.407.13-.713l-.026-.442c-.209.034-.391.34-.522.951zm-13.44 25.399l.026.204c.026.306-.104.475-.365.509l-.026-.204c-.026-.272.104-.407.365-.509zm-.339.951c.026.441-.209 1.528-.678 3.294l-.574.068c-.026-.306.287-1.392.887-3.294l.365-.068zm6.289 7.097c.026.238-.287.509-.887.781l-1.148-.102-.365.034-.026-.441 2.427-.272zm1.122.136l.026.204-.939.102-.026-.204.939-.102z"/></g></symbol></svg>