<svg xmlns="http://www.w3.org/2000/svg" xmlns:xlink="http://www.w3.org/1999/xlink" xmlns:v="http://vecta.io" width="387" height="141" viewBox="0 0 387 141" v:json="{&quot;settings&quot;:{&quot;locA&quot;:&quot;1.25 in&quot;,&quot;locB&quot;:&quot;0.75 in&quot;,&quot;locC&quot;:&quot;1.25 in&quot;,&quot;locD&quot;:&quot;0.75 in&quot;,&quot;locSep&quot;:&quot;.&quot;,&quot;locPage&quot;:&quot;/&quot;,&quot;panelPrefix&quot;:1,&quot;renumberSplittedWires&quot;:1,&quot;rotateZoneLabels&quot;:0}}"><style><![CDATA[svg{stroke:#000;stroke-linecap:round;stroke-linejoin:round;fill:#fff;fill-rule:evenodd;font-family:Roboto;font-size:14px;text-anchor:middle}svg text{paint-order:stroke;white-space:pre}svg .Text\.cls{stroke:none}]]></style><defs><linearGradient id="L19119694401a237e401001a237e0.grad" x1="19.68%" y1="119.30%" x2="69.89%" y2="44.82%"><stop offset="0%" stop-color="#1a237e" stop-opacity=".4"/><stop offset="100%" stop-color="#1a237e" stop-opacity="0"/></linearGradient><radialGradient id="R13537370ffffff10100ffffff0.grad" cx="3%" cy="7%" r="135%" fx="3%" fy="7%"><stop offset="0%" stop-color="#ffffff" stop-opacity=".1"/><stop offset="100%" stop-color="#ffffff" stop-opacity="0"/></radialGradient></defs><g><g><g transform="translate(32.3448 64.6761)"><path d="M 21.5489 59.305 L 80.8418 0 L 37.7286 0 L 0 37.7424 Z" stroke="none" stroke-linejoin="miter" stroke-linecap="butt" fill="#39cefd" fill-rule="nonzero" stroke-width="0.03881820550003898"/></g><g><path d="M 0 70.0741 L 70.0741 0 L 113.186 0 L 21.5625 91.637 Z" stroke="none" stroke-linejoin="miter" stroke-linecap="butt" fill="#39cefd" fill-rule="nonzero" stroke-width="0.03881820550003898"/></g><g transform="translate(53.8943 102.4183)"><path d="M 16.1796 37.7286 L 59.2914 37.7286 L 21.5625 0 L 0 21.5629 Z" stroke="none" stroke-linejoin="miter" stroke-linecap="butt" fill="#03569b" fill-rule="nonzero" stroke-width="0.03881820550003898"/></g><g transform="translate(53.8943 102.4183)"><path d="M 21.5625 0 L 0 21.5629 L 31.9797 10.4842 Z" stroke="none" stroke-linejoin="miter" stroke-linecap="butt" fill="url(#L19119694401a237e401001a237e0.grad)" fill-rule="nonzero" stroke-width="0.03881820550003898"/></g><g transform="translate(32.3423 80.8471)"><path d="M 0 21.5645 L 21.563 0 L 43.128 21.5645 L 21.563 43.1276 Z" stroke="none" stroke-linejoin="miter" stroke-linecap="butt" fill="#16b9fd" fill-rule="nonzero" stroke-width="0.03881820550003898"/></g><g><path d="M 113.186 64.6759 L 75.457 102.4182 L 113.186 140.1606 L 70.0741 140.1606 L 32.3317 102.4182 L 70.0741 64.6759 L 113.186 64.6759 Z M 70.0741 0 L 0 70.0741 L 21.5625 91.637 L 113.186 0 L 70.0741 0 Z" stroke="none" stroke-linejoin="miter" stroke-linecap="butt" fill="url(#R13537370ffffff10100ffffff0.grad)" fill-rule="nonzero" stroke-width="0.03881820550003898"/></g><g transform="translate(126.8736 37.5702)"><path d="M 0 0 L 37.6808 0 L 37.6808 7.3695 L 7.6473 7.3695 L 7.6473 29.6643 L 34.7604 29.6643 L 34.7604 36.9437 L 7.6473 36.9437 L 7.6473 65.1523 L 0 65.1523 L 0 0 Z M 46.7991 0 L 54.5332 0 L 54.5332 65.1556 L 46.7991 65.1556 L 46.7991 0 Z M 82.8288 66.6126 Q 74.4584 66.6126 69.9676 61.6966 Q 65.6288 56.7509 65.6288 47.9568 L 65.6288 18.7472 L 73.3629 18.7472 L 73.3629 46.7744 Q 73.3629 53.3788 76.3658 56.5072 Q 79.37 59.6357 84.4659 59.6357 Q 88.3797 59.6357 91.4182 57.5438 Q 94.5466 55.4505 96.1452 52.0863 Q 97.8735 48.7141 97.8735 44.9882 L 97.8735 18.7782 L 105.6032 18.7782 L 105.6032 65.1833 L 98.2351 65.1833 L 98.2351 58.4191 L 97.8691 58.4191 Q 95.9573 61.8781 91.7721 64.2414 Q 87.5869 66.6049 82.8523 66.6049 Z" stroke="none" stroke-linejoin="miter" stroke-linecap="butt" fill="#808080" fill-rule="nonzero"/></g><g transform="translate(241.2266 43.212)"><path d="M 21.0206 60.244 Q 18.1979 60.244 15.7431 59.333 Q 13.3796 58.4223 11.7396 56.8765 Q 9.9176 55.1478 9.0097 52.8714 Q 8.0991 50.598 8.0991 47.3205 L 8.0991 20.1129 L 0 20.1129 L 0 13.105 L 8.0991 13.105 L 8.0991 0 L 15.8347 0 L 15.8347 13.105 L 27.1176 13.105 L 27.1176 20.1129 L 15.8347 20.1129 L 15.8347 45.4119 Q 15.8347 49.2356 17.2932 51.0528 Q 19.0205 53.0559 22.2994 53.0559 Q 24.9407 53.0559 27.3956 51.5089 L 27.3956 59.063 Q 26.0284 59.6979 24.5728 59.9725 Q 23.2071 60.2517 21.027 60.2517 Z" stroke="none" stroke-linejoin="miter" stroke-linecap="butt" fill="#808080" fill-rule="nonzero"/></g><g transform="translate(274.0272 43.212)"><path d="M 21.0206 60.244 Q 18.1979 60.244 15.7431 59.333 Q 13.3796 58.4223 11.7393 56.8765 Q 9.9176 55.1478 9.0097 52.8714 Q 8.099 50.598 8.099 47.3205 L 8.099 20.1129 L 0 20.1129 L 0 13.105 L 8.099 13.105 L 8.099 0 L 15.8347 0 L 15.8347 13.105 L 27.1176 13.105 L 27.1176 20.1129 L 15.8347 20.1129 L 15.8347 45.4119 Q 15.8347 49.2356 17.2932 51.0528 Q 19.0205 53.0559 22.2994 53.0559 Q 24.9407 53.0559 27.3956 51.5089 L 27.3956 59.063 Q 26.0284 59.6979 24.5728 59.9725 Q 23.2071 60.2517 21.0269 60.2517 Z" stroke="none" stroke-linejoin="miter" stroke-linecap="butt" fill="#808080" fill-rule="nonzero"/></g><g transform="translate(305.9969 54.8534)"><path d="M 23.1158 49.3287 Q 16.5111 49.3287 11.1932 46.1458 Q 5.9169 42.9615 2.9127 37.4094 Q 0 31.7683 0 24.7573 Q 0 18.0241 2.7282 12.3818 Q 5.5506 6.7396 10.6468 3.3721 Q 15.7429 0 22.4761 0 Q 29.2997 0 34.3057 3.1284 Q 39.3117 6.1313 41.9529 11.4988 Q 44.6811 16.8696 44.6811 23.783 Q 44.6811 25.1499 44.403 26.1477 L 7.7311 26.1477 Q 8.0088 31.424 10.2792 35.0675 Q 12.5526 38.7066 16.0145 40.5238 Q 19.5603 42.3455 23.3838 42.3455 Q 32.3037 42.3455 37.1236 33.9751 L 43.6768 37.1594 Q 40.674 42.8017 35.488 46.0792 Q 30.3918 49.3534 23.1124 49.3534 Z M 36.492 19.7544 Q 36.3105 16.8417 34.8581 13.932 Q 33.398 11.0194 30.2181 9.0174 Q 27.0897 7.0142 22.397 7.0142 Q 16.9392 7.0142 13.1156 10.5599 Q 9.3853 14.0189 8.1999 19.7513 L 36.5029 19.7513 Z M 53.6428 1.4633 L 61.0121 1.4633 L 61.0121 8.9261 L 61.3769 8.9261 Q 62.7437 5.1024 66.6542 2.6489 Q 70.5681 0.1009 74.8435 0.1009 Q 78.0276 0.1009 80.301 1.0118 L 80.301 9.3822 Q 77.3882 7.9219 73.7491 7.9219 Q 70.3773 7.9219 67.5605 9.8337 Q 64.7381 11.7456 63.042 15.0198 Q 61.4093 18.2042 61.4093 21.9721 L 61.4093 47.9041 L 53.6738 47.9041 L 53.6738 1.4976 Z" stroke="none" stroke-linejoin="miter" stroke-linecap="butt" fill="#808080" fill-rule="nonzero"/></g></g></g></svg>