<svg xmlns="http://www.w3.org/2000/svg" xmlns:xlink="http://www.w3.org/1999/xlink" viewBox="0 0 74 82" fill="#fff" fill-rule="evenodd" stroke="#000" stroke-linecap="round" stroke-linejoin="round"><use xlink:href="#H" x=".5" y=".5"/><defs><linearGradient id="A" x1="0%" y1="50%" x2="100%" y2="50%"><stop offset="53%" stop-color="#00c3e6"/><stop offset="100%" stop-color="#00b0e6"/></linearGradient><linearGradient id="B" x1="0%" y1="0%" x2="100%" y2="100%"><stop offset="0%" stop-color="#0eda74"/><stop offset="100%" stop-color="#00f076"/></linearGradient><linearGradient id="C" x1="0%" y1="89%" x2="100%" y2="11%"><stop offset="0%" stop-color="#e6ac00"/><stop offset="63%" stop-color="#e6c700"/></linearGradient><linearGradient id="D" x1="0%" y1="44%" x2="100%" y2="56%"><stop offset="0%" stop-color="#ca1c47"/><stop offset="97%" stop-color="#e4010d"/></linearGradient><linearGradient id="E" x1="0%" y1="83%" x2="100%" y2="17%"><stop offset="0%" stop-color="#ffc100"/><stop offset="64%" stop-color="#ffdb00"/></linearGradient><linearGradient id="F" x1="0%" y1="44%" x2="100%" y2="56%"><stop offset="0%" stop-color="#e12553"/><stop offset="100%" stop-color="#fe3a44"/></linearGradient><linearGradient id="G" x1="0%" y1="50%" x2="100%" y2="50%"><stop offset="53%" stop-color="#00d9ff"/><stop offset="100%" stop-color="#00c3ff"/></linearGradient></defs><symbol id="H" overflow="visible"><g stroke="none"><path fill="url(#A)" d="M39.912 39.733L1.124 78.849C.42 78.113 0 77.088 0 76.116V40 3.884c0-.878.343-1.798.928-2.511z"/><path fill="url(#B)" d="M39.912 39.733l13.125-13.236L7.75.76C6.125.01 4-.24 2.5.26 1.878.467 1.342.868.928 1.373z"/><path fill="url(#C)" d="M53.037 26.497L39.912 39.733 53.588 53.19 68 44.999c3.5-2.249 4-3.124 4-4.999s-.5-2.749-4-4.999z"/><path fill="url(#D)" d="M1.124 78.849l38.787-39.116L53.587 53.19 7.75 79.24c-1.625.75-3.75 1-5.25.5-.528-.176-.993-.491-1.376-.891z"/></g><g transform="translate(39.875 26.5)"><path fill="url(#E)" d="M13.125 0L0 13.25l13.625 13.375 14.5-8.25c3.5-2.249 4-3.001 4-4.875s-.456-2.718-3.956-4.967z" stroke="none"/></g><g stroke="none"><path fill="url(#F)" d="M1.25 78.75l38.662-39.017L53.5 53.125l-45.75 26c-1.625.75-3.75 1-5.25.5-.528-.176-.868-.475-1.25-.875z"/><path fill="url(#G)" d="M39.912 39.733L1.25 78.75C.546 78.013 0 76.847 0 75.875V40 3.884c0-.878.343-1.798.928-2.511z"/></g></symbol></svg>