<svg width="475" height="184" viewBox="0 0 475 184" fill="none" xmlns="http://www.w3.org/2000/svg">
<path fill-rule="evenodd" clip-rule="evenodd" d="M91.3728 53.1971C86.2736 51.0864 80.8082 50 75.2888 50L50.3184 50V134H75.2888C80.8082 134 86.2736 132.914 91.3728 130.803C96.4721 128.692 101.105 125.599 105.008 121.698C108.911 117.798 112.007 113.168 114.119 108.073C116.231 102.977 117.318 97.5155 117.318 92C117.318 86.4845 116.231 81.023 114.119 75.9273C112.007 70.8316 108.911 66.2016 105.008 62.3015C101.105 58.4015 96.4721 55.3078 91.3728 53.1971ZM72.0754 70.2586H88.3928V83.6435L101.646 83.564L101.743 99.6845L88.3928 99.7646V113.247H72.0754V99.8625L58.9099 99.9415L58.8131 83.8209L72.0754 83.7414V70.2586Z" fill="white"/>
<path d="M391.695 65H403.221V86.1309H424.352V97.6568H403.221V118.788H391.695V97.6569H370.564V86.1309H391.695V65Z" fill="white"/>
<path fill-rule="evenodd" clip-rule="evenodd" d="M164.496 69.2778C160.421 67.1671 155.684 66.1117 150.285 66.1117H132.318V117.507H150.285C155.684 117.507 160.421 116.452 164.496 114.341C168.619 112.23 171.785 109.26 173.994 105.431C176.252 101.553 177.381 97.0372 177.381 91.883C177.381 86.7287 176.252 82.2126 173.994 78.3346C171.785 74.4076 168.619 71.3886 164.496 69.2778ZM162.434 104.327C159.489 107.272 155.316 108.745 149.916 108.745H142.627V74.8003H149.916C155.316 74.8003 159.489 76.322 162.434 79.3655C165.379 82.3599 166.852 86.5324 166.852 91.883C166.852 97.2336 165.379 101.382 162.434 104.327Z" fill="white"/>
<path fill-rule="evenodd" clip-rule="evenodd" d="M189.663 115.593C192.805 117.311 196.339 118.17 200.266 118.17C204.242 118.17 207.826 117.311 211.016 115.593C214.256 113.825 216.809 111.346 218.674 108.156C220.589 104.965 221.546 101.283 221.546 97.1109C221.546 92.9384 220.613 89.2568 218.748 86.066C216.932 82.8753 214.428 80.4209 211.237 78.7028C208.047 76.9356 204.488 76.052 200.561 76.052C196.634 76.052 193.075 76.9356 189.884 78.7028C186.693 80.4209 184.165 82.8753 182.3 86.066C180.484 89.2568 179.575 92.9384 179.575 97.1109C179.575 101.283 180.459 104.965 182.226 108.156C184.042 111.346 186.521 113.825 189.663 115.593ZM205.494 107.861C203.874 108.745 202.131 109.187 200.266 109.187C197.321 109.187 194.866 108.156 192.903 106.094C190.988 103.983 190.031 100.989 190.031 97.1109C190.031 93.2329 191.013 90.2631 192.976 88.2014C194.989 86.0906 197.468 85.0352 200.413 85.0352C203.359 85.0352 205.838 86.0906 207.85 88.2014C209.912 90.2631 210.943 93.2329 210.943 97.1109C210.943 99.7126 210.452 101.922 209.47 103.738C208.488 105.554 207.163 106.929 205.494 107.861Z" fill="white"/>
<path d="M223.511 97.1109C223.511 92.8893 224.37 89.2077 226.089 86.066C227.807 82.8753 230.187 80.4209 233.231 78.7028C236.274 76.9356 239.76 76.052 243.687 76.052C248.743 76.052 252.915 77.3283 256.204 79.8809C259.542 82.3844 261.776 85.9188 262.905 90.484H251.786C251.197 88.7168 250.191 87.3423 248.767 86.3606C247.393 85.3297 245.675 84.8143 243.613 84.8143C240.668 84.8143 238.336 85.8942 236.618 88.0541C234.9 90.1649 234.041 93.1838 234.041 97.1109C234.041 100.989 234.9 104.008 236.618 106.168C238.336 108.278 240.668 109.334 243.613 109.334C247.786 109.334 250.51 107.468 251.786 103.738H262.905C261.776 108.156 259.542 111.666 256.204 114.267C252.866 116.869 248.694 118.17 243.687 118.17C239.76 118.17 236.274 117.311 233.231 115.593C230.187 113.825 227.807 111.371 226.089 108.229C224.37 105.039 223.511 101.332 223.511 97.1109Z" fill="white"/>
<path d="M279.513 104.916V85.1824H288.644V76.7147H279.513V66.6271H269.131V76.7147H264.272V85.1824H269.131V104.842C269.131 113.285 273.476 117.507 282.164 117.507H288.644V108.818H283.858C282.287 108.818 281.158 108.524 280.471 107.935C279.833 107.297 279.513 106.29 279.513 104.916Z" fill="white"/>
<path fill-rule="evenodd" clip-rule="evenodd" d="M311.227 118.17C307.299 118.17 303.765 117.311 300.623 115.593C297.482 113.825 295.003 111.346 293.187 108.156C291.419 104.965 290.536 101.283 290.536 97.1109C290.536 92.9384 291.444 89.2568 293.26 86.066C295.126 82.8753 297.654 80.4209 300.844 78.7028C304.035 76.9356 307.594 76.052 311.521 76.052C315.448 76.052 319.007 76.9356 322.198 78.7028C325.389 80.4209 327.892 82.8753 329.708 86.066C331.574 89.2568 332.506 92.9384 332.506 97.1109C332.506 101.283 331.549 104.965 329.635 108.156C327.769 111.346 325.217 113.825 321.977 115.593C318.786 117.311 315.203 118.17 311.227 118.17ZM311.227 109.187C313.092 109.187 314.835 108.745 316.454 107.861C318.123 106.929 319.449 105.554 320.431 103.738C321.412 101.922 321.903 99.7126 321.903 97.1109C321.903 93.2329 320.872 90.2631 318.811 88.2014C316.798 86.0906 314.319 85.0352 311.374 85.0352C308.429 85.0352 305.95 86.0906 303.937 88.2014C301.973 90.2631 300.992 93.2329 300.992 97.1109C300.992 100.989 301.949 103.983 303.863 106.094C305.827 108.156 308.281 109.187 311.227 109.187Z" fill="white"/>
<path d="M352.585 77.9665C350.475 79.1937 348.757 80.8872 347.431 83.0471V76.7147H337.123V117.507H347.431V97.1845C347.431 93.4047 348.241 90.754 349.861 89.2322C351.53 87.7105 353.985 86.9496 357.224 86.9496H359.949V76.1257C357.2 76.1257 354.745 76.7393 352.585 77.9665Z" fill="white"/>
</svg>
