<svg width="487" height="196" viewBox="0 0 487 196" fill="none" xmlns="http://www.w3.org/2000/svg">
<path fill-rule="evenodd" clip-rule="evenodd" d="M146.665 94.2759C148.557 103.3 147.681 111.693 144.624 118.692L144.786 118.689C142.166 125.862 133.448 140.869 112.924 145.172C112.143 145.336 111.364 145.466 110.586 145.563C108.628 145.851 106.596 146 104.5 146C80.1933 146 56.2946 125.992 51.1204 101.31C48.6558 89.5538 50.8841 78.8576 56.5207 70.879C59.1388 65.8393 72.8744 53.6168 83.9589 51.2418C84.259 51.1775 84.5475 51.1271 84.8249 51.0901C87.7545 50.3766 90.8793 50 94.169 50C118.035 50 141.539 69.823 146.665 94.2759ZM138.31 92.2069C142.334 111.404 130.401 126.965 111.656 126.965C92.9117 126.965 74.4537 111.404 70.4294 92.2069C66.405 73.0102 78.3381 57.4482 97.0828 57.4482C115.827 57.4482 134.285 73.0102 138.31 92.2069ZM110.513 116.207C124.387 116.207 133.277 104.963 130.369 91.0922C127.462 77.2218 113.857 65.9775 99.9828 65.9775C86.1086 65.9775 77.2186 77.2218 80.1264 91.0922C83.0342 104.963 96.6387 116.207 110.513 116.207ZM122.872 90.0514C124.696 98.7526 118.968 105.806 110.077 105.806C101.187 105.806 92.501 98.7526 90.6769 90.0514C88.8528 81.3501 94.5811 74.2964 103.472 74.2964C112.362 74.2964 121.048 81.3501 122.872 90.0514ZM114.72 90.0516C115.62 94.346 112.793 97.8273 108.405 97.8273C104.017 97.8273 99.7306 94.346 98.8303 90.0516C97.93 85.7572 100.757 82.2759 105.145 82.2759C109.533 82.2759 113.82 85.7572 114.72 90.0516Z" fill="white"/>
<path d="M210.978 120C210.978 120.552 211.426 121 211.978 121H219.58C220.132 121 220.58 120.552 220.58 120V83.4906H211.978C211.426 83.4906 210.978 83.9383 210.978 84.4906V120Z" fill="white"/>
<path d="M211.288 77.5499C212.209 78.517 213.613 79.0005 215.501 79.0005C217.389 79.0005 218.771 78.517 219.646 77.5499C220.521 76.5368 220.958 75.2934 220.958 73.8197C220.958 72.254 220.521 70.9875 219.646 70.0205C218.771 69.0534 217.389 68.5698 215.501 68.5698C213.613 68.5698 212.209 69.0534 211.288 70.0205C210.413 70.9875 209.975 72.254 209.975 73.8197C209.975 75.2934 210.413 76.5368 211.288 77.5499Z" fill="white"/>
<path fill-rule="evenodd" clip-rule="evenodd" d="M195.843 103.454C192.895 104.836 189.303 105.526 185.067 105.526H177.468V120C177.468 120.552 177.02 121 176.468 121H168.659C168.107 121 167.659 120.552 167.659 120V71.2277C167.659 70.6754 168.107 70.2277 168.659 70.2277H176.468C176.576 70.2277 176.68 70.2448 176.777 70.2764C176.875 70.2448 176.979 70.2277 177.087 70.2277H185.067C189.303 70.2277 192.895 70.9185 195.843 72.3C198.836 73.6816 201.116 75.6618 202.681 78.2407C204.247 80.7735 205.03 83.7899 205.03 87.2898V88.3951C205.03 91.895 204.247 94.9344 202.681 97.5133C201.116 100.046 198.836 102.026 195.843 103.454ZM190.869 79.8985C189.534 79.1157 187.876 78.7242 185.896 78.7242H177.468V97.0298H185.896C187.876 97.0298 189.534 96.6383 190.869 95.8554C192.251 95.0726 193.287 93.9903 193.978 92.6088C194.715 91.2272 195.083 89.6385 195.083 87.8424C195.083 86.0464 194.715 84.4576 193.978 83.0761C193.287 81.6945 192.251 80.6354 190.869 79.8985Z" fill="white"/>
<path d="M229.192 121C228.64 121 228.192 120.552 228.192 120V84.4906C228.192 83.9383 228.64 83.4906 229.192 83.4906H234.791C235.343 83.4906 235.791 83.9383 235.791 84.4906V92.7338C236.013 91.7718 236.289 90.8781 236.62 90.0529C237.633 87.474 239.129 85.5399 241.11 84.2504C243.136 82.961 245.646 82.3162 248.639 82.3162H249.053C253.521 82.3162 256.905 83.7669 259.208 86.6681C261.51 89.5233 262.662 93.8061 262.662 99.5165V120C262.662 120.552 262.214 121 261.662 121H254.06C253.508 121 253.06 120.552 253.06 120V98.6876C253.06 96.385 252.392 94.5199 251.057 93.0923C249.767 91.6647 247.971 90.9509 245.669 90.9509C243.32 90.9509 241.409 91.6878 239.935 93.1614C238.508 94.589 237.794 96.5232 237.794 98.9639V120C237.794 120.552 237.346 121 236.794 121H229.192Z" fill="white"/>
<path fill-rule="evenodd" clip-rule="evenodd" d="M298.474 103.454C295.527 104.836 291.935 105.526 287.698 105.526H280.1V120C280.1 120.552 279.652 121 279.1 121H271.29C270.738 121 270.29 120.552 270.29 120V71.2277C270.29 70.6754 270.738 70.2277 271.29 70.2277H279.1C279.207 70.2277 279.311 70.2448 279.409 70.2764C279.506 70.2448 279.61 70.2277 279.718 70.2277H287.698C291.935 70.2277 295.527 70.9185 298.474 72.3C301.467 73.6816 303.747 75.6618 305.313 78.2407C306.879 80.7735 307.661 83.7899 307.661 87.2898V88.3951C307.661 91.895 306.879 94.9344 305.313 97.5133C303.747 100.046 301.467 102.026 298.474 103.454ZM293.501 79.8985C292.165 79.1157 290.507 78.7242 288.527 78.7242H280.1V97.0298H288.527C290.507 97.0298 292.165 96.6383 293.501 95.8554C294.882 95.0726 295.918 93.9903 296.609 92.6088C297.346 91.2272 297.714 89.6385 297.714 87.8424C297.714 86.0464 297.346 84.4576 296.609 83.0761C295.918 81.6945 294.882 80.6354 293.501 79.8985Z" fill="white"/>
<path fill-rule="evenodd" clip-rule="evenodd" d="M329.033 122.312C325.718 122.312 322.793 121.783 320.26 120.723C317.728 119.664 315.586 118.237 313.836 116.441C312.086 114.598 310.751 112.526 309.83 110.224C308.955 107.921 308.517 105.526 308.517 103.039V101.589C308.517 99.01 308.978 96.5692 309.899 94.2666C310.866 91.918 312.224 89.8457 313.974 88.0497C315.77 86.2076 317.935 84.78 320.468 83.7669C323.001 82.7077 325.856 82.1781 329.033 82.1781C332.211 82.1781 335.066 82.7077 337.599 83.7669C340.132 84.78 342.273 86.2076 344.023 88.0497C345.819 89.8457 347.178 91.918 348.099 94.2666C349.02 96.5692 349.48 99.01 349.48 101.589V103.039C349.48 105.526 349.02 107.921 348.099 110.224C347.224 112.526 345.911 114.598 344.161 116.441C342.411 118.237 340.27 119.664 337.737 120.723C335.204 121.783 332.303 122.312 329.033 122.312ZM329.033 114.092C331.382 114.092 333.362 113.585 334.974 112.572C336.586 111.513 337.806 110.108 338.635 108.358C339.464 106.562 339.878 104.536 339.878 102.28C339.878 99.9771 339.441 97.9508 338.566 96.2008C337.737 94.4048 336.494 93.0002 334.836 91.9871C333.224 90.9279 331.29 90.3983 329.033 90.3983C326.777 90.3983 324.82 90.9279 323.162 91.9871C321.55 93.0002 320.307 94.4048 319.432 96.2008C318.557 97.9508 318.119 99.9771 318.119 102.28C318.119 104.536 318.534 106.562 319.362 108.358C320.237 110.108 321.481 111.513 323.093 112.572C324.704 113.585 326.685 114.092 329.033 114.092Z" fill="white"/>
<path d="M356.23 120C356.23 120.552 356.678 121 357.23 121H364.832C365.384 121 365.832 120.552 365.832 120V83.4906H357.23C356.678 83.4906 356.23 83.9383 356.23 84.4906V120Z" fill="white"/>
<path d="M356.539 77.5499C357.46 78.517 358.865 79.0005 360.753 79.0005C362.641 79.0005 364.022 78.517 364.897 77.5499C365.772 76.5368 366.21 75.2934 366.21 73.8197C366.21 72.254 365.772 70.9875 364.897 70.0205C364.022 69.0534 362.641 68.5698 360.753 68.5698C358.865 68.5698 357.46 69.0534 356.539 70.0205C355.664 70.9875 355.227 72.254 355.227 73.8197C355.227 75.2934 355.664 76.5368 356.539 77.5499Z" fill="white"/>
<path d="M374.444 121C373.891 121 373.444 120.552 373.444 120V84.4906C373.444 83.9383 373.891 83.4906 374.444 83.4906H380.042C380.594 83.4906 381.042 83.9383 381.042 84.4906V92.7338C381.265 91.7717 381.541 90.8781 381.871 90.0529C382.884 87.474 384.381 85.5399 386.361 84.2504C388.387 82.961 390.897 82.3162 393.891 82.3162H394.305C398.772 82.3162 402.157 83.7669 404.459 86.6681C406.762 89.5233 407.913 93.8061 407.913 99.5165V120C407.913 120.552 407.466 121 406.913 121H399.312C398.759 121 398.312 120.552 398.312 120V98.6876C398.312 96.385 397.644 94.5199 396.308 93.0923C395.019 91.6647 393.223 90.9509 390.92 90.9509C388.572 90.9509 386.66 91.6878 385.187 93.1614C383.759 94.589 383.045 96.5232 383.045 98.9639V120C383.045 120.552 382.598 121 382.045 121H374.444Z" fill="white"/>
<path d="M422.519 120.171C424.775 121.046 427.631 121.483 431.085 121.483H435.473C436.025 121.483 436.473 121.035 436.473 120.483V114.263C436.473 113.711 436.025 113.263 435.473 113.263H430.601C428.759 113.263 427.331 112.779 426.318 111.812C425.351 110.799 424.868 109.372 424.868 107.53L424.901 90.5365H435.473C436.025 90.5365 436.473 90.0887 436.473 89.5365V84.4906C436.473 83.9383 436.025 83.4906 435.473 83.4906H424.915L424.935 73.9237C424.936 73.3706 424.488 72.9217 423.935 72.9217H416.955C416.403 72.9217 415.956 73.3682 415.955 73.9197L415.935 83.4906H410.947C410.395 83.4906 409.947 83.9383 409.947 84.4906V89.5365C409.947 90.0887 410.395 90.5365 410.947 90.5365H415.921L415.887 106.908C415.887 110.546 416.44 113.447 417.545 115.612C418.651 117.73 420.308 119.25 422.519 120.171Z" fill="white"/>
</svg>
