<svg width="358" height="150" viewBox="0 0 358 150" fill="none" xmlns="http://www.w3.org/2000/svg">
<path d="M99.504 96.6082C99.9003 101.341 98.2988 106.211 94.6936 109.848C91.0883 113.485 86.2327 115.129 81.4969 114.775C81.1007 110.042 82.7021 105.172 86.3074 101.535C89.9126 97.8981 94.7683 96.2537 99.504 96.6082Z" fill="white"/>
<path d="M90.9259 90.0319C86.1996 95.0862 79.3718 98.1162 71.9174 97.7757C64.4638 97.4353 57.9412 93.7963 53.6953 88.3333C58.4216 83.279 65.2494 80.249 72.7038 80.5894C80.1574 80.9299 86.68 84.5688 90.9259 90.0319Z" fill="white"/>
<path d="M50.917 73.766C51.9043 61.9309 57.8753 50.5861 68.276 43.1132C78.6763 35.6407 91.3328 33.6013 102.864 36.4412C101.877 48.2762 95.9056 59.6211 85.5049 67.0939C75.1046 74.5665 62.4481 76.6059 50.917 73.766Z" fill="white"/>
<path d="M242.636 59.2526V66.4595H246.96V104.137H254.647V66.4595H264.737V59.2526H254.647V51.8781C254.647 49.7639 254.839 48.0665 255.224 46.7851C255.608 45.504 256.121 44.6072 256.761 44.0945C257.466 43.5181 258.299 43.2299 259.26 43.2299C260.028 43.2299 260.829 43.3901 261.662 43.7101C262.559 43.9665 263.327 44.6391 263.968 45.7281L268.196 39.3862C267.748 38.7455 267.107 38.1369 266.274 37.5605C265.506 36.9838 264.577 36.5033 263.488 36.1189C262.399 35.7345 261.149 35.5425 259.74 35.5425C257.049 35.5425 254.743 36.1189 252.821 37.272C250.964 38.3611 249.522 40.0266 248.497 42.2688C247.472 44.511 246.96 47.3937 246.96 50.917V59.2526H242.636Z" fill="white"/>
<path d="M121.917 44.5599L121.917 104.137H156.51V96.4493H130.085V44.5599H121.917Z" fill="white"/>
<path fill-rule="evenodd" clip-rule="evenodd" d="M176.996 105.098C181.737 105.098 185.837 104.169 189.296 102.311C192.819 100.389 195.734 97.5703 198.04 93.8549L191.794 89.915C190.193 92.6056 188.239 94.6236 185.933 95.9688C183.627 97.2499 180.968 97.8906 177.957 97.8906C174.946 97.8906 172.384 97.2499 170.27 95.9688C168.156 94.6876 166.554 92.8298 165.465 90.3955C164.638 88.5456 164.124 86.3996 163.926 83.9574H198.713V83.0925C198.777 82.5801 198.809 82.0996 198.809 81.6512C198.809 76.9747 197.976 72.939 196.311 69.5437C194.645 66.1483 192.243 63.5539 189.104 61.7601C186.029 59.9025 182.313 58.9736 177.957 58.9736C173.601 58.9736 169.757 59.9344 166.426 61.8563C163.159 63.7781 160.597 66.4687 158.739 69.928C156.945 73.3874 156.048 77.4231 156.048 82.0356C156.048 86.584 156.913 90.5876 158.643 94.0469C160.436 97.5062 162.903 100.229 166.042 102.215C169.245 104.137 172.896 105.098 176.996 105.098ZM165.561 73.003C164.947 74.3033 164.496 75.7768 164.208 77.4231H190.406C190.258 75.318 189.728 73.4604 188.815 71.8499C187.79 69.928 186.349 68.4227 184.491 67.3336C182.634 66.2445 180.455 65.7 177.957 65.7C175.01 65.7 172.48 66.3407 170.366 67.6218C168.316 68.8389 166.714 70.6328 165.561 73.003Z" fill="white"/>
<path fill-rule="evenodd" clip-rule="evenodd" d="M230.101 79.9019C228.893 79.1095 227.355 78.4115 225.489 77.8075C223.375 77.0387 220.716 76.6544 217.513 76.6544C212.068 76.6544 207.808 77.9677 204.733 80.5942C201.722 83.1565 200.217 86.584 200.217 90.8761C200.217 93.8867 200.921 96.4493 202.33 98.5632C203.74 100.677 205.598 102.311 207.904 103.464C210.274 104.553 212.805 105.098 215.495 105.098C217.929 105.098 220.364 104.649 222.798 103.752C225.297 102.855 227.379 101.478 229.044 99.6205C229.442 99.1927 229.794 98.7394 230.101 98.2609V104.137H237.788V72.4263C237.788 69.5437 237.052 67.1094 235.578 65.1235C234.169 63.1377 232.151 61.6321 229.525 60.6073C226.962 59.5182 223.951 58.9736 220.492 58.9736C216.392 58.9736 212.869 59.5822 209.922 60.7993C207.039 62.0164 204.765 63.2336 203.099 64.4507L206.847 70.1201C207.551 69.6077 208.513 68.9991 209.73 68.2944C210.947 67.5897 212.42 66.9811 214.15 66.4687C215.944 65.9563 217.929 65.7 220.108 65.7C221.453 65.7 222.734 65.828 223.951 66.0843C225.168 66.3407 226.225 66.7569 227.122 67.3336C228.083 67.91 228.82 68.7109 229.332 69.7357C229.845 70.6968 230.101 71.946 230.101 73.4835V79.9019ZM209.153 86.3598C208.384 87.5129 208 88.8902 208 90.4917C208 92.1572 208.384 93.5985 209.153 94.8157C209.986 96.0328 211.107 96.9617 212.516 97.6024C213.99 98.1788 215.655 98.4673 217.513 98.4673C219.883 98.4673 221.997 97.9868 223.855 97.0257C225.777 96.0649 227.282 94.7195 228.371 92.99C229.525 91.1961 230.101 89.1463 230.101 86.84V85.1776C228.87 84.5787 227.621 84.1077 226.353 83.7651C223.983 83.0606 221.453 82.7081 218.762 82.7081C216.264 82.7081 214.214 83.0285 212.612 83.6692C211.075 84.3096 209.922 85.2067 209.153 86.3598Z" fill="white"/>
<path fill-rule="evenodd" clip-rule="evenodd" d="M298.093 102.311C294.634 104.169 290.534 105.098 285.794 105.098C281.694 105.098 278.042 104.137 274.839 102.215C271.7 100.229 269.234 97.5062 267.44 94.0469C265.71 90.5876 264.846 86.584 264.846 82.0356C264.846 77.4231 265.743 73.3874 267.536 69.928C269.394 66.4687 271.956 63.7781 275.223 61.8563C278.555 59.9344 282.398 58.9736 286.755 58.9736C291.111 58.9736 294.826 59.9025 297.901 61.7601C301.04 63.5539 303.442 66.1483 305.108 69.5437C306.774 72.939 307.606 76.9747 307.606 81.6512C307.606 82.0996 307.574 82.5801 307.51 83.0925V83.9574H272.723C272.922 86.3996 273.435 88.5456 274.263 90.3955C275.352 92.8298 276.953 94.6876 279.067 95.9688C281.181 97.2499 283.744 97.8906 286.755 97.8906C289.765 97.8906 292.424 97.2499 294.73 95.9688C297.036 94.6236 298.99 92.6056 300.592 89.915L306.838 93.8549C304.531 97.5703 301.617 100.389 298.093 102.311ZM273.006 77.4231C273.294 75.7768 273.745 74.3033 274.359 73.003C275.512 70.6328 277.113 68.8389 279.163 67.6218C281.277 66.3407 283.808 65.7 286.755 65.7C289.253 65.7 291.431 66.2445 293.289 67.3336C295.146 68.4227 296.588 69.928 297.613 71.8499C298.525 73.4604 299.056 75.318 299.204 77.4231H273.006Z" fill="white"/>
</svg>
