<svg width="300" height="142" viewBox="0 0 300 142" fill="none" xmlns="http://www.w3.org/2000/svg">
<path d="M92.6234 95.1799C92.9194 101.124 87.3263 106.233 80.1308 106.591C72.9354 106.95 66.8623 102.422 66.5663 96.4775C66.2703 90.5334 71.8634 85.4243 79.0589 85.066C86.2544 84.7077 92.3274 89.2358 92.6234 95.1799Z" fill="white"/>
<path d="M67.0428 83.2305C67.203 86.4484 65.5576 89.1454 63.3677 89.2544C61.1778 89.3635 59.2726 86.8433 59.1123 83.6254C58.9521 80.4076 60.5975 77.7106 62.7874 77.6016C64.9773 77.4925 66.8825 80.0127 67.0428 83.2305Z" fill="white"/>
<path d="M76.9167 76.2494C77.0769 79.4673 75.4316 82.1642 73.2416 82.2733C71.0517 82.3824 69.1465 79.8622 68.9863 76.6443C68.826 73.4265 70.4714 70.7295 72.6613 70.6204C74.8513 70.5114 76.7565 73.0316 76.9167 76.2494Z" fill="white"/>
<path d="M87.1149 75.7413C87.2752 78.9591 85.6298 81.6561 83.4399 81.7652C81.2499 81.8742 79.3447 79.354 79.1845 76.1362C79.0243 72.9183 80.6696 70.2214 82.8596 70.1123C85.0495 70.0032 86.9547 72.5234 87.1149 75.7413Z" fill="white"/>
<path d="M97.6342 81.7075C97.7944 84.9253 96.149 87.6223 93.9591 87.7314C91.7692 87.8404 89.864 85.3202 89.7037 82.1024C89.5435 78.8845 91.1889 76.1876 93.3788 76.0785C95.5687 75.9694 97.4739 78.4896 97.6342 81.7075Z" fill="white"/>
<path d="M58.6312 67.6935C55.2459 72.5883 47.6981 73.2343 41.7728 69.1363C35.8474 65.0384 33.7883 57.7482 37.1736 52.8534C40.5589 47.9585 48.1067 47.3125 54.032 51.4105C59.9574 55.5085 62.0165 62.7986 58.6312 67.6935Z" fill="white"/>
<path d="M45.6195 42.6366C43.7868 45.2865 40.8393 46.4235 39.0359 45.1763C37.2326 43.9291 37.2563 40.7699 39.0889 38.1201C40.9216 35.4702 43.8691 34.3332 45.6725 35.5804C47.4759 36.8276 47.4521 39.9868 45.6195 42.6366Z" fill="white"/>
<path d="M57.7012 43.1123C55.8686 45.7621 52.921 46.8992 51.1177 45.652C49.3143 44.4047 49.338 41.2456 51.1706 38.5957C53.0033 35.9459 55.9508 34.8088 57.7542 36.056C59.5576 37.3032 59.5339 40.4624 57.7012 43.1123Z" fill="white"/>
<path d="M66.1 48.9199C64.2674 51.5697 61.3198 52.7068 59.5164 51.4596C57.7131 50.2124 57.7368 47.0532 59.5694 44.4033C61.4021 41.7535 64.3496 40.6164 66.153 41.8636C67.9564 43.1108 67.9327 46.27 66.1 48.9199Z" fill="white"/>
<path d="M70.8093 60.0578C68.9767 62.7076 66.0291 63.8447 64.2258 62.5975C62.4224 61.3503 62.4461 58.1911 64.2788 55.5413C66.1114 52.8914 69.059 51.7543 70.8623 53.0016C72.6657 54.2488 72.642 57.408 70.8093 60.0578Z" fill="white"/>
<path d="M117.261 92.2778C114.422 90.8784 112.103 89.0591 110.304 86.8198C108.504 84.541 107.165 82.1016 106.285 79.5024C105.445 76.8638 105.025 74.3047 105.025 71.8257V70.5059C105.025 67.7871 105.465 65.1079 106.345 62.4688C107.225 59.79 108.564 57.3706 110.363 55.2114C112.203 53.0522 114.502 51.333 117.261 50.0537C120.06 48.7339 123.358 48.0742 127.157 48.0742C131.116 48.0742 134.614 48.814 137.653 50.2935C140.692 51.7729 143.111 53.832 144.911 56.4712C146.75 59.0703 147.83 62.1289 148.149 65.6479H138.253C137.974 63.8882 137.333 62.3892 136.334 61.1494C135.334 59.9097 134.035 58.9502 132.436 58.2705C130.876 57.5908 129.116 57.251 127.157 57.251C125.198 57.251 123.459 57.5908 121.939 58.2705C120.42 58.9502 119.141 59.9097 118.101 61.1494C117.769 61.5605 117.461 61.998 117.178 62.4619C117.1 62.5898 117.023 62.7197 116.949 62.8516L116.846 63.0376C116.77 63.1787 116.695 63.3218 116.623 63.4668C116.509 63.6958 116.399 63.9302 116.296 64.1704C116.24 64.2998 116.187 64.4302 116.134 64.5625C116.091 64.6685 116.049 64.7759 116.008 64.8843C115.922 65.1143 115.84 65.3486 115.762 65.5879C115.241 67.2671 114.981 69.1465 114.981 71.2256C114.981 73.2651 115.241 75.144 115.762 76.8638C115.823 77.0474 115.887 77.2285 115.953 77.4072L116.056 77.6724C116.59 79.022 117.291 80.2319 118.16 81.3018C119.24 82.5415 120.56 83.501 122.119 84.1807C123.679 84.8208 125.458 85.1406 127.457 85.1406C130.496 85.1406 133.055 84.4009 135.135 82.9214C137.254 81.4419 138.533 79.4028 138.973 76.8037H148.81C148.449 80.0024 147.37 82.9414 145.57 85.6206C143.812 88.2593 141.392 90.3784 138.313 91.978C135.274 93.5376 131.655 94.3174 127.457 94.3174C123.499 94.3174 120.1 93.6372 117.261 92.2778Z" fill="white"/>
<path d="M152.216 93.1777V49.3936H161.873V93.1777H152.216Z" fill="white"/>
<path d="M170.505 90.5386C172.544 92.9775 175.463 94.1973 179.262 94.1973H179.682C182.161 94.1973 184.767 94.2573 186.446 93.1777C187.603 92.4346 189.2 91.3872 190.357 90.0889V93.1777H197.975V60.3096H188.379V79.6226C188.379 81.4619 187.839 82.9214 186.759 84.001C185.68 85.0806 184.28 85.6206 182.561 85.6206C180.881 85.6206 179.542 85.1006 178.542 84.061C177.543 83.0215 177.043 81.6221 177.043 79.8623V60.3096H167.446V79.3828C167.446 84.3408 168.466 88.0596 170.505 90.5386Z" fill="white"/>
<path fill-rule="evenodd" clip-rule="evenodd" d="M218.43 94.3174C215.631 94.3174 213.151 93.8374 210.992 92.8779C208.873 91.918 207.094 90.6387 205.654 89.0391C204.255 87.3999 203.175 85.5806 202.415 83.5811C201.695 81.542 201.336 79.4624 201.336 77.3433V76.144C201.336 73.9448 201.695 71.8452 202.415 69.8462C203.175 67.8071 204.255 65.9878 205.654 64.3882C207.054 62.7886 208.793 61.5293 210.872 60.6094C212.991 59.6499 215.391 59.1699 218.069 59.1699C221.588 59.1699 224.547 59.9697 226.946 61.5693C229.386 63.1289 231.245 65.188 232.524 67.7471C233.804 70.2661 234.443 73.0249 234.443 76.0239V79.2627H210.437C210.574 80.2368 210.8 81.1367 211.112 81.9619C211.672 83.4014 212.552 84.521 213.751 85.3203C214.951 86.1201 216.51 86.52 218.43 86.52C220.188 86.52 221.628 86.1802 222.748 85.5005C223.273 85.1812 223.72 84.8267 224.087 84.437C224.502 83.9966 224.815 83.5117 225.027 82.9814H233.844C233.364 85.1807 232.425 87.1396 231.024 88.8594C229.625 90.5786 227.866 91.918 225.747 92.8779C223.628 93.8374 221.188 94.3174 218.43 94.3174ZM210.558 73.5498C210.541 73.6338 210.525 73.7188 210.511 73.8047H225.33C225.191 72.8828 224.97 72.0435 224.667 71.2856C224.107 69.8862 223.268 68.8267 222.148 68.1069C221.068 67.3472 219.709 66.9673 218.069 66.9673C217.763 66.9673 217.464 66.98 217.174 67.0054C216.887 67.0308 216.608 67.0684 216.338 67.1187C215.391 67.2944 214.549 67.624 213.812 68.1069C212.651 68.8667 211.771 69.9863 211.172 71.4658C211.109 71.6162 211.05 71.7705 210.993 71.9282C210.935 72.0913 210.881 72.2583 210.83 72.4292C210.725 72.7856 210.634 73.1592 210.558 73.5498Z" fill="white"/>
<path d="M239.303 91.3184C241.942 93.2378 245.601 94.1973 250.279 94.1973C253.238 94.1973 255.817 93.7773 258.017 92.9375C260.216 92.0581 261.915 90.8184 263.114 89.2192C264.314 87.5796 264.914 85.6602 264.914 83.4609C264.914 80.4224 263.794 78.0034 261.555 76.2036C259.315 74.4043 256.177 73.2852 252.139 72.8452L249.56 72.605C247.84 72.4053 246.601 72.0654 245.841 71.5854C245.532 71.3906 245.286 71.1597 245.103 70.8921C244.835 70.501 244.701 70.0322 244.701 69.4863C244.701 68.5269 245.141 67.7671 246.021 67.207C246.9 66.6475 248.08 66.3677 249.56 66.3677C251.438 66.3677 252.858 66.7476 253.817 67.5068C254.777 68.2266 255.337 69.1265 255.497 70.2061H264.014C263.895 66.6875 262.534 64.0083 259.936 62.1689C257.337 60.2896 253.918 59.3501 249.68 59.3501C247.04 59.3501 244.682 59.75 242.602 60.5498C240.562 61.3491 238.963 62.5288 237.804 64.0884C236.645 65.6479 236.064 67.5869 236.064 69.9062C236.064 72.7051 237.044 75.0044 239.003 76.8037C241.003 78.603 243.981 79.7026 247.94 80.1025L250.52 80.3423C252.679 80.582 254.178 81.002 255.018 81.6021C255.857 82.1616 256.277 82.9214 256.277 83.8809C256.277 84.9604 255.717 85.8003 254.598 86.3999C253.518 86.96 252.139 87.2397 250.459 87.2397C248.26 87.2397 246.601 86.8398 245.48 86.04C244.401 85.2007 243.781 84.2607 243.622 83.2212H235.104C235.265 86.7002 236.664 89.3989 239.303 91.3184Z" fill="white"/>
</svg>
