<svg width="423" height="174" viewBox="0 0 423 174" fill="none" xmlns="http://www.w3.org/2000/svg">
<path d="M190.648 61.0664C191.767 62.2415 193.474 62.8291 195.768 62.8291C198.062 62.8291 199.741 62.2415 200.804 61.0664C201.868 59.8353 202.399 58.3244 202.399 56.5337C202.399 54.631 201.868 53.0922 200.804 51.917C199.741 50.7419 198.062 50.1543 195.768 50.1543C193.474 50.1543 191.767 50.7419 190.648 51.917C189.584 53.0922 189.053 54.631 189.053 56.5337C189.053 58.3244 189.584 59.8353 190.648 61.0664Z" fill="white"/>
<path d="M137.362 68.2851L151.632 113.864H170.35L182.689 68.2851H171.442L162.157 104.295H160.175L149.366 68.2851H137.362Z" fill="white"/>
<path d="M228.94 115.291C222.673 115.291 217.748 113.976 214.167 111.346C210.642 108.66 208.795 104.966 208.627 100.266H219.119C219.287 101.833 220.155 103.26 221.721 104.547C223.288 105.834 225.751 106.477 229.108 106.477C231.906 106.477 234.116 105.974 235.739 104.966C237.418 103.959 238.257 102.588 238.257 100.853C238.257 99.3425 237.614 98.1394 236.327 97.244C235.096 96.3487 232.969 95.7611 229.947 95.4813L225.918 95.0616C220.826 94.502 216.909 93.0471 214.167 90.6968C211.425 88.3465 210.054 85.2128 210.054 81.2956C210.054 78.1619 210.837 75.5318 212.404 73.4054C213.971 71.2789 216.126 69.6841 218.868 68.6209C221.665 67.5017 224.855 66.9421 228.437 66.9421C234.032 66.9421 238.565 68.1732 242.035 70.6354C245.504 73.0976 247.323 76.707 247.491 81.4635H236.998C236.886 79.8967 236.103 78.5536 234.648 77.4344C233.193 76.3153 231.095 75.7557 228.353 75.7557C225.89 75.7557 223.988 76.2313 222.645 77.1826C221.302 78.1339 220.63 79.365 220.63 80.8759C220.63 82.3309 221.162 83.4501 222.225 84.2335C223.344 85.0169 225.135 85.5485 227.597 85.8283L231.626 86.248C236.998 86.8076 241.195 88.2905 244.217 90.6968C247.295 93.103 248.834 96.3487 248.834 100.434C248.834 103.456 247.994 106.086 246.316 108.324C244.693 110.506 242.398 112.213 239.433 113.444C236.467 114.675 232.969 115.291 228.94 115.291Z" fill="white"/>
<path d="M255.618 61.0664C256.738 62.2415 258.444 62.8291 260.739 62.8291C263.033 62.8291 264.712 62.2415 265.775 61.0664C266.838 59.8353 267.37 58.3244 267.37 56.5337C267.37 54.631 266.838 53.0922 265.775 51.917C264.712 50.7419 263.033 50.1543 260.739 50.1543C258.444 50.1543 256.738 50.7419 255.618 51.917C254.555 53.0922 254.024 54.631 254.024 56.5337C254.024 58.3244 254.555 59.8353 255.618 61.0664Z" fill="white"/>
<path fill-rule="evenodd" clip-rule="evenodd" d="M299.283 115.459C295.254 115.459 291.701 114.815 288.623 113.528C285.545 112.241 282.943 110.506 280.816 108.324C278.69 106.086 277.067 103.567 275.948 100.769C274.885 97.9715 274.353 95.0616 274.353 92.0398V90.2771C274.353 87.1434 274.913 84.1775 276.032 81.3796C277.207 78.5257 278.858 76.0075 280.984 73.8251C283.167 71.5867 285.797 69.852 288.875 68.6209C291.952 67.3338 295.422 66.6903 299.283 66.6903C303.144 66.6903 306.614 67.3338 309.691 68.6209C312.769 69.852 315.371 71.5867 317.498 73.8251C319.68 76.0075 321.331 78.5257 322.45 81.3796C323.569 84.1775 324.129 87.1434 324.129 90.2771V92.0398C324.129 95.0616 323.569 97.9715 322.45 100.769C321.387 103.567 319.792 106.086 317.666 108.324C315.539 110.506 312.937 112.241 309.859 113.528C306.782 114.815 303.256 115.459 299.283 115.459ZM299.283 105.47C302.137 105.47 304.543 104.854 306.502 103.623C308.46 102.336 309.943 100.63 310.951 98.5031C311.958 96.3207 312.461 93.8585 312.461 91.1165C312.461 88.3185 311.93 85.8563 310.867 83.7299C309.859 81.5475 308.348 79.8407 306.334 78.6096C304.375 77.3225 302.025 76.679 299.283 76.679C296.541 76.679 294.163 77.3225 292.148 78.6096C290.19 79.8407 288.679 81.5475 287.615 83.7299C286.552 85.8563 286.021 88.3185 286.021 91.1165C286.021 93.8585 286.524 96.3207 287.532 98.5031C288.595 100.63 290.106 102.336 292.064 103.623C294.023 104.854 296.429 105.47 299.283 105.47Z" fill="white"/>
<path d="M340.389 76.2593C339.988 77.262 339.652 78.3479 339.382 79.517V68.2851H330.148V113.864H341.816V87.0874C341.816 84.1216 342.683 81.7713 344.418 80.0366C346.209 78.2459 348.531 77.3505 351.385 77.3505C354.183 77.3505 356.365 78.2179 357.932 79.9526C359.555 81.6874 360.366 83.9537 360.366 86.7517V113.864H372.034V87.7589C372.034 80.82 370.635 75.6158 367.837 72.1463C365.039 68.6209 360.926 66.8581 355.498 66.8581H354.994C351.357 66.8581 348.307 67.6416 345.845 69.2084C343.439 70.7753 341.62 73.1256 340.389 76.2593Z" fill="white"/>
<path d="M191.487 77.0148V113.864H203.155V68.2851H185.108V77.0148H191.487Z" fill="white"/>
<path d="M256.458 77.0148V113.864H268.125V68.2851H250.078V77.0148H256.458Z" fill="white"/>
<mask id="path-2-inside-1_5_1365" fill="white">
<path fill-rule="evenodd" clip-rule="evenodd" d="M86.9008 123.231C107.08 123.231 123.439 106.872 123.439 86.6928C123.439 66.5131 107.08 50.1543 86.9008 50.1543C66.7211 50.1543 50.3623 66.5131 50.3623 86.6928C50.3623 106.872 66.7211 123.231 86.9008 123.231ZM113.791 82.9012C110.384 86.8853 105.585 89.3664 100.268 89.3664C89.9318 89.3664 81.5529 79.99 81.5529 68.4236C81.5529 65.5137 82.0832 62.7424 83.0417 60.2241C70.0899 62.1912 60.165 73.3743 60.165 86.8754C60.165 90.8146 61.0099 94.5565 62.5284 97.9297C64.0688 96.4967 66.2336 95.6049 68.6313 95.6049C73.307 95.6049 77.0975 98.9964 77.0975 103.18C77.0975 105.989 75.3884 108.441 72.8498 109.749C76.9891 112.338 81.8815 113.834 87.1233 113.834C102.012 113.834 114.082 101.764 114.082 86.8754C114.082 85.5252 113.982 84.1981 113.791 82.9012Z"/>
</mask>
<path fill-rule="evenodd" clip-rule="evenodd" d="M86.9008 123.231C107.08 123.231 123.439 106.872 123.439 86.6928C123.439 66.5131 107.08 50.1543 86.9008 50.1543C66.7211 50.1543 50.3623 66.5131 50.3623 86.6928C50.3623 106.872 66.7211 123.231 86.9008 123.231ZM113.791 82.9012C110.384 86.8853 105.585 89.3664 100.268 89.3664C89.9318 89.3664 81.5529 79.99 81.5529 68.4236C81.5529 65.5137 82.0832 62.7424 83.0417 60.2241C70.0899 62.1912 60.165 73.3743 60.165 86.8754C60.165 90.8146 61.0099 94.5565 62.5284 97.9297C64.0688 96.4967 66.2336 95.6049 68.6313 95.6049C73.307 95.6049 77.0975 98.9964 77.0975 103.18C77.0975 105.989 75.3884 108.441 72.8498 109.749C76.9891 112.338 81.8815 113.834 87.1233 113.834C102.012 113.834 114.082 101.764 114.082 86.8754C114.082 85.5252 113.982 84.1981 113.791 82.9012Z" fill="white"/>
<path d="M113.791 82.9012L116.435 82.5104L115.577 76.6988L111.759 81.1636L113.791 82.9012ZM83.0417 60.2241L85.5404 61.1751L87.1701 56.8929L82.6402 57.5809L83.0417 60.2241ZM62.5284 97.9297L60.0905 99.0272L61.6205 102.426L64.3495 99.8872L62.5284 97.9297ZM72.8498 109.749L71.6253 107.372L67.4481 109.525L71.4323 112.016L72.8498 109.749ZM120.766 86.6928C120.766 105.396 105.604 120.558 86.9008 120.558V125.905C108.557 125.905 126.113 108.349 126.113 86.6928H120.766ZM86.9008 52.8278C105.604 52.8278 120.766 67.9897 120.766 86.6928H126.113C126.113 65.0366 108.557 47.4808 86.9008 47.4808V52.8278ZM53.0359 86.6928C53.0359 67.9897 68.1977 52.8278 86.9008 52.8278V47.4808C65.2446 47.4808 47.6888 65.0366 47.6888 86.6928H53.0359ZM86.9008 120.558C68.1977 120.558 53.0359 105.396 53.0359 86.6928H47.6888C47.6888 108.349 65.2446 125.905 86.9008 125.905V120.558ZM100.268 92.04C106.453 92.04 111.967 89.1478 115.823 84.6388L111.759 81.1636C108.801 84.6227 104.717 86.6929 100.268 86.6929V92.04ZM78.8793 68.4236C78.8793 81.1759 88.1804 92.04 100.268 92.04V86.6929C91.6832 86.6929 84.2264 78.8042 84.2264 68.4236H78.8793ZM80.543 59.2731C79.4692 62.0945 78.8793 65.1881 78.8793 68.4236H84.2264C84.2264 65.8393 84.6973 63.3902 85.5404 61.1751L80.543 59.2731ZM62.8386 86.8754C62.8386 74.7157 71.7781 64.639 83.4431 62.8674L82.6402 57.5809C68.4016 59.7435 57.4915 72.0329 57.4915 86.8754H62.8386ZM64.9663 96.8323C63.6001 93.7973 62.8386 90.4289 62.8386 86.8754H57.4915C57.4915 91.2004 58.4198 95.3157 60.0905 99.0272L64.9663 96.8323ZM68.6313 92.9314C65.5719 92.9314 62.7526 94.0696 60.7073 95.9723L64.3495 99.8872C65.385 98.9238 66.8954 98.2785 68.6313 98.2785V92.9314ZM79.771 103.18C79.771 97.248 74.4962 92.9314 68.6313 92.9314V98.2785C72.1179 98.2785 74.424 100.745 74.424 103.18H79.771ZM74.0742 112.126C77.365 110.43 79.771 107.136 79.771 103.18H74.424C74.424 104.842 73.4118 106.452 71.6253 107.372L74.0742 112.126ZM87.1233 111.16C82.3972 111.16 77.994 109.813 74.2673 107.482L71.4323 112.016C75.9842 114.862 81.3657 116.507 87.1233 116.507V111.16ZM111.408 86.8754C111.408 100.287 100.535 111.16 87.1233 111.16V116.507C103.488 116.507 116.755 103.241 116.755 86.8754H111.408ZM111.146 83.2919C111.318 84.4599 111.408 85.6564 111.408 86.8754H116.755C116.755 85.3939 116.646 83.9363 116.435 82.5104L111.146 83.2919Z" fill="white" mask="url(#path-2-inside-1_5_1365)"/>
</svg>
